<svg width="22" height="22" viewBox="0 0 22 22" fill="none" xmlns="http://www.w3.org/2000/svg">
<path fill-rule="evenodd" clip-rule="evenodd" d="M4.60389 4.6046C0.116149 9.11066 -0.694174 15.6275 2.79744 19.1333C4.25808 20.6012 6.24389 21.3112 8.3897 21.3112C11.3703 21.3112 14.6568 19.9392 17.2658 17.3208C21.7536 12.8148 22.5639 6.29794 19.0723 2.79208C15.582 -0.71638 9.09163 0.0985458 4.60389 4.6046ZM6.42841 6.43657C8.54712 4.31051 11.1729 3.17687 13.4645 3.17687C14.4632 3.17687 15.3884 3.41137 16.1897 3.85446L3.84002 16.2545C2.38454 13.6012 3.38583 9.49286 6.42841 6.43657ZM5.66583 18.0852C8.30712 19.5492 12.4 18.5413 15.4426 15.4876C18.4852 12.4313 19.4865 8.32295 18.031 5.66958L5.66583 18.0852Z" fill="#151D28"/>
</svg>
